<svg id="Layer_1" data-name="Layer 1" xmlns="http://www.w3.org/2000/svg" viewBox="0 0 2000 2000"><defs><style>.cls-1{fill:#fff;}.cls-2{fill:#5b9668;}</style></defs><title>logowhite</title><rect class="cls-1" x="139.26" y="139.52" width="1721.48" height="1721.48"/><path class="cls-2" d="M609.62,1295.06v35h-106v150.24c0,39.61,21.09,53,60.2,53,17.49,0,32.93-1.54,45.79-5.14v37.55c-17,5.16-34,6.18-48.37,6.18-65.34,0-100.32-25.2-100.32-83.86v-158H383.24v-35h77.69V1221h42.7v74.08Z"/><path class="cls-2" d="M821.6,1573.92c-81.29,0-122.45-59.17-122.45-141.48,0-90,48.88-145.61,123.48-145.61,83.35,0,119.88,62.26,119.88,155.89H743.91c1.55,53,27.27,91.59,79.23,91.59,35,0,58.66-17,70.49-53h43.21C927.59,1537.91,884.89,1573.92,821.6,1573.92ZM745,1407.74H896.2c0-44.76-27.77-81.29-74.09-81.29C773.75,1326.45,748.54,1362.47,745,1407.74Z"/><rect class="cls-2" x="1373.01" y="426.61" width="243.86" height="287.08"/><path class="cls-2" d="M627,570.15c0,81.8-39.1,143.54-121.93,143.54S383.12,652,383.12,570.15s39.11-143.54,121.94-143.54S627,488.35,627,570.15Zm-199.11,0c0,55.05,22.64,103.93,77.18,103.93s77.16-48.88,77.16-103.93-22.63-103.93-77.16-103.93S427.88,515.1,427.88,570.15Z"/><path class="cls-2" d="M570.91,954.47c-4.63-35.49-28.29-57.62-65.85-57.62-55.56,0-77.18,53-77.18,106.5s24.19,101.36,78.21,101.36c37.56,0,60.71-21.09,67.91-63.8h43.21c-5.65,64.82-45.78,103.41-112.15,103.41-78.71,0-121.94-61.74-121.94-141,0-80.78,42.2-146.12,122.45-146.12,65.86,0,107,40.13,108.57,97.24Z"/><path class="cls-2" d="M938.79,1000.77c0,81.81-39.1,143.55-121.93,143.55s-121.94-61.74-121.94-143.55S734,857.23,816.86,857.23,938.79,919,938.79,1000.77Zm-199.1,0c0,55.06,22.63,103.94,77.17,103.94S894,1055.83,894,1000.77s-22.64-103.92-77.17-103.92S739.69,945.73,739.69,1000.77Z"/></svg>